<svg width="523" height="501" viewBox="0 0 523 501" fill="none" xmlns="http://www.w3.org/2000/svg">
<path d="M522.5 250C522.5 388.071 410.571 500 272.5 500C134.429 500 0 388.071 0 250C0 111.929 111.929 0 250 0C388.071 0 522.5 111.929 522.5 250Z" fill="white"/>
<path d="M72.6875 500.25C72.6875 500.25 35 500.25 35 462.562C35 424.875 72.6875 311.812 261.125 311.812C449.562 311.812 487.25 424.875 487.25 462.562C487.25 500.25 449.562 500.25 449.562 500.25H72.6875ZM261.125 274.125C291.111 274.125 319.869 262.213 341.072 241.01C362.276 219.806 374.188 191.049 374.188 161.062C374.188 131.076 362.276 102.319 341.072 81.1152C319.869 59.9119 291.111 48 261.125 48C231.139 48 202.381 59.9119 181.178 81.1152C159.974 102.319 148.062 131.076 148.062 161.062C148.062 191.049 159.974 219.806 181.178 241.01C202.381 262.213 231.139 274.125 261.125 274.125Z" fill="#FFBF69"/>
</svg>
