<svg width="655" height="151" viewBox="0 0 655 151" fill="none" xmlns="http://www.w3.org/2000/svg">
<path d="M80.8 147H0.400001V3.8H18.8V129.4H80.8V147ZM142.809 150.2C128.409 150.2 116.543 145.267 107.209 135.4C97.876 125.533 93.2094 113.067 93.2094 98C93.2094 83.0667 97.7427 70.6667 106.809 60.8C115.876 50.8 127.476 45.8 141.609 45.8C156.143 45.8 167.676 50.5333 176.209 60C184.876 69.3333 189.209 82.4667 189.209 99.4L189.009 101.4H112.009C112.276 111 115.476 118.733 121.609 124.6C127.743 130.467 135.076 133.4 143.609 133.4C155.343 133.4 164.543 127.533 171.209 115.8L187.609 123.8C183.209 132.067 177.076 138.533 169.209 143.2C161.476 147.867 152.676 150.2 142.809 150.2ZM113.409 86.2H169.609C169.076 79.4 166.276 73.8 161.209 69.4C156.276 64.8667 149.609 62.6 141.209 62.6C134.276 62.6 128.276 64.7333 123.209 69C118.276 73.2667 115.009 79 113.409 86.2ZM243.906 148.6C235.906 148.6 229.24 146.133 223.906 141.2C218.706 136.267 216.04 129.4 215.906 120.6V65.8H198.706V49H215.906V19H234.306V49H258.306V65.8H234.306V114.6C234.306 121.133 235.573 125.6 238.106 128C240.64 130.267 243.506 131.4 246.706 131.4C248.173 131.4 249.573 131.267 250.906 131C252.373 130.6 253.706 130.133 254.906 129.6L260.706 146C255.906 147.733 250.306 148.6 243.906 148.6ZM299.409 147H281.009V3.8H299.409V147ZM363.922 148.6C355.922 148.6 349.255 146.133 343.922 141.2C338.722 136.267 336.055 129.4 335.922 120.6V65.8H318.722V49H335.922V19H354.322V49H378.322V65.8H354.322V114.6C354.322 121.133 355.589 125.6 358.122 128C360.655 130.267 363.522 131.4 366.722 131.4C368.189 131.4 369.589 131.267 370.922 131C372.389 130.6 373.722 130.133 374.922 129.6L380.722 146C375.922 147.733 370.322 148.6 363.922 148.6ZM538.825 81.2C538.825 101.2 532.892 117.133 521.025 129C507.692 143.133 490.158 150.2 468.425 150.2C447.625 150.2 430.025 143 415.625 128.6C401.225 114.2 394.025 96.4667 394.025 75.4C394.025 54.3333 401.225 36.6 415.625 22.2C430.025 7.79999 447.625 0.599989 468.425 0.599989C478.958 0.599989 488.892 2.46666 498.225 6.19999C507.558 9.93332 515.225 15.2 521.225 22L508.025 35.2C503.625 29.8667 497.892 25.7333 490.825 22.8C483.892 19.7333 476.425 18.2 468.425 18.2C452.825 18.2 439.625 23.6 428.825 34.4C418.158 45.3333 412.825 59 412.825 75.4C412.825 91.8 418.158 105.467 428.825 116.4C439.625 127.2 452.825 132.6 468.425 132.6C482.692 132.6 494.558 128.6 504.025 120.6C513.492 112.6 518.958 101.6 520.425 87.6H468.425V70.4H537.825C538.492 74.1333 538.825 77.7333 538.825 81.2ZM553.405 98C553.405 82.9333 558.138 70.4667 567.605 60.6C577.205 50.7333 589.271 45.8 603.805 45.8C618.338 45.8 630.338 50.7333 639.805 60.6C649.405 70.4667 654.205 82.9333 654.205 98C654.205 113.2 649.405 125.667 639.805 135.4C630.338 145.267 618.338 150.2 603.805 150.2C589.271 150.2 577.205 145.267 567.605 135.4C558.138 125.533 553.405 113.067 553.405 98ZM571.805 98C571.805 108.533 574.871 117.067 581.005 123.6C587.138 130.133 594.738 133.4 603.805 133.4C612.871 133.4 620.471 130.133 626.605 123.6C632.738 117.067 635.805 108.533 635.805 98C635.805 87.6 632.738 79.1333 626.605 72.6C620.338 65.9333 612.738 62.6 603.805 62.6C594.871 62.6 587.271 65.9333 581.005 72.6C574.871 79.1333 571.805 87.6 571.805 98Z" fill="black"/>
<path d="M80.8 147V151H84.8V147H80.8ZM0.400001 147H-3.6V151H0.400001V147ZM0.400001 3.8V-0.200004H-3.6V3.8H0.400001ZM18.8 3.8H22.8V-0.200004H18.8V3.8ZM18.8 129.4H14.8V133.4H18.8V129.4ZM80.8 129.4H84.8V125.4H80.8V129.4ZM80.8 143H0.400001V151H80.8V143ZM4.4 147V3.8H-3.6V147H4.4ZM0.400001 7.8H18.8V-0.200004H0.400001V7.8ZM14.8 3.8V129.4H22.8V3.8H14.8ZM18.8 133.4H80.8V125.4H18.8V133.4ZM76.8 129.4V147H84.8V129.4H76.8ZM107.209 135.4L110.115 132.651L107.209 135.4ZM106.809 60.8L109.755 63.5065L109.764 63.4967L109.773 63.4868L106.809 60.8ZM176.209 60L173.238 62.6782L173.258 62.7001L173.278 62.7218L176.209 60ZM189.209 99.4L193.19 99.798L193.209 99.5995V99.4H189.209ZM189.009 101.4V105.4H192.629L192.99 101.798L189.009 101.4ZM112.009 101.4V97.4H107.897L108.011 101.511L112.009 101.4ZM121.609 124.6L118.844 127.491L118.844 127.491L121.609 124.6ZM171.209 115.8L172.963 112.205L169.587 110.558L167.732 113.824L171.209 115.8ZM187.609 123.8L191.14 125.679L193.087 122.022L189.363 120.205L187.609 123.8ZM169.209 143.2L167.169 139.76L167.156 139.767L167.143 139.775L169.209 143.2ZM113.409 86.2L109.505 85.3323L108.423 90.2H113.409V86.2ZM169.609 86.2V90.2H173.935L173.597 85.8872L169.609 86.2ZM161.209 69.4L158.503 72.3453L158.544 72.3833L158.587 72.4201L161.209 69.4ZM123.209 69L120.633 65.9404L120.613 65.9573L120.593 65.9745L123.209 69ZM142.809 146.2C129.435 146.2 118.644 141.667 110.115 132.651L104.304 138.149C114.442 148.866 127.384 154.2 142.809 154.2V146.2ZM110.115 132.651C101.564 123.611 97.2094 112.166 97.2094 98H89.2094C89.2094 113.968 94.1883 127.456 104.304 138.149L110.115 132.651ZM97.2094 98C97.2094 83.9452 101.446 72.5486 109.755 63.5065L103.864 58.0935C94.0397 68.7848 89.2094 82.1882 89.2094 98H97.2094ZM109.773 63.4868C118.042 54.3665 128.545 49.8 141.609 49.8V41.8C126.407 41.8 113.71 47.2335 103.846 58.1132L109.773 63.4868ZM141.609 49.8C155.186 49.8 165.574 54.1752 173.238 62.6782L179.18 57.3218C169.778 46.8914 157.1 41.8 141.609 41.8V49.8ZM173.278 62.7218C181.057 71.0989 185.209 83.1361 185.209 99.4H193.209C193.209 81.7972 188.695 67.5678 179.141 57.2782L173.278 62.7218ZM185.229 99.002L185.029 101.002L192.99 101.798L193.19 99.798L185.229 99.002ZM189.009 97.4H112.009V105.4H189.009V97.4ZM108.011 101.511C108.303 112.013 111.848 120.798 118.844 127.491L124.374 121.709C119.104 116.669 116.249 109.987 116.008 101.289L108.011 101.511ZM118.844 127.491C125.727 134.074 134.052 137.4 143.609 137.4V129.4C136.1 129.4 129.759 126.86 124.374 121.709L118.844 127.491ZM143.609 137.4C157.023 137.4 167.438 130.535 174.687 117.776L167.732 113.824C161.648 124.532 153.662 129.4 143.609 129.4V137.4ZM169.456 119.395L185.856 127.395L189.363 120.205L172.963 112.205L169.456 119.395ZM184.078 121.921C180.014 129.557 174.389 135.476 167.169 139.76L171.25 146.64C179.763 141.59 186.405 134.577 191.14 125.679L184.078 121.921ZM167.143 139.775C160.09 144.031 152.017 146.2 142.809 146.2V154.2C153.335 154.2 162.862 151.702 171.276 146.625L167.143 139.775ZM113.409 90.2H169.609V82.2H113.409V90.2ZM173.597 85.8872C172.983 78.0599 169.706 71.4808 163.832 66.3799L158.587 72.4201C162.846 76.1192 165.169 80.7401 165.622 86.5128L173.597 85.8872ZM163.916 66.4547C158.07 61.0829 150.347 58.6 141.209 58.6V66.6C148.872 66.6 154.482 68.6505 158.503 72.3453L163.916 66.4547ZM141.209 58.6C133.381 58.6 126.456 61.0363 120.633 65.9404L125.786 72.0596C130.096 68.4304 135.171 66.6 141.209 66.6V58.6ZM120.593 65.9745C114.926 70.8757 111.266 77.4081 109.505 85.3323L117.314 87.0677C118.753 80.5919 121.626 75.6576 125.826 72.0254L120.593 65.9745ZM223.906 141.2L221.153 144.102L221.172 144.119L221.19 144.136L223.906 141.2ZM215.906 120.6H211.906V120.63L211.907 120.661L215.906 120.6ZM215.906 65.8H219.906V61.8H215.906V65.8ZM198.706 65.8H194.706V69.8H198.706V65.8ZM198.706 49V45H194.706V49H198.706ZM215.906 49V53H219.906V49H215.906ZM215.906 19V15H211.906V19H215.906ZM234.306 19H238.306V15H234.306V19ZM234.306 49H230.306V53H234.306V49ZM258.306 49H262.306V45H258.306V49ZM258.306 65.8V69.8H262.306V65.8H258.306ZM234.306 65.8V61.8H230.306V65.8H234.306ZM238.106 128L235.355 130.904L235.397 130.943L235.439 130.981L238.106 128ZM250.906 131L251.691 134.922L251.826 134.895L251.959 134.859L250.906 131ZM254.906 129.6L258.677 128.266L257.235 124.188L253.282 125.945L254.906 129.6ZM260.706 146L262.065 149.762L265.802 148.413L264.477 144.666L260.706 146ZM243.906 144.6C236.803 144.6 231.139 142.442 226.622 138.264L221.19 144.136C227.34 149.825 235.01 152.6 243.906 152.6V144.6ZM226.659 138.298C222.411 134.268 220.027 128.525 219.906 120.539L211.907 120.661C212.052 130.275 215.001 138.265 221.153 144.102L226.659 138.298ZM219.906 120.6V65.8H211.906V120.6H219.906ZM215.906 61.8H198.706V69.8H215.906V61.8ZM202.706 65.8V49H194.706V65.8H202.706ZM198.706 53H215.906V45H198.706V53ZM219.906 49V19H211.906V49H219.906ZM215.906 23H234.306V15H215.906V23ZM230.306 19V49H238.306V19H230.306ZM234.306 53H258.306V45H234.306V53ZM254.306 49V65.8H262.306V49H254.306ZM258.306 61.8H234.306V69.8H258.306V61.8ZM230.306 65.8V114.6H238.306V65.8H230.306ZM230.306 114.6C230.306 121.366 231.561 127.309 235.355 130.904L240.857 125.096C239.585 123.891 238.306 120.901 238.306 114.6H230.306ZM235.439 130.981C238.656 133.859 242.457 135.4 246.706 135.4V127.4C244.555 127.4 242.623 126.674 240.773 125.019L235.439 130.981ZM246.706 135.4C248.416 135.4 250.08 135.245 251.691 134.922L250.122 127.078C249.066 127.289 247.93 127.4 246.706 127.4V135.4ZM251.959 134.859C253.591 134.414 255.119 133.883 256.531 133.255L253.282 125.945C252.293 126.384 251.155 126.786 249.854 127.141L251.959 134.859ZM251.135 130.934L256.935 147.334L264.477 144.666L258.677 128.266L251.135 130.934ZM259.348 142.238C255.078 143.78 249.956 144.6 243.906 144.6V152.6C250.657 152.6 256.734 151.687 262.065 149.762L259.348 142.238ZM299.409 147V151H303.409V147H299.409ZM281.009 147H277.009V151H281.009V147ZM281.009 3.8V-0.200004H277.009V3.8H281.009ZM299.409 3.8H303.409V-0.200004H299.409V3.8ZM299.409 143H281.009V151H299.409V143ZM285.009 147V3.8H277.009V147H285.009ZM281.009 7.8H299.409V-0.200004H281.009V7.8ZM295.409 3.8V147H303.409V3.8H295.409ZM343.922 141.2L341.169 144.102L341.187 144.119L341.206 144.136L343.922 141.2ZM335.922 120.6H331.922V120.63L331.922 120.661L335.922 120.6ZM335.922 65.8H339.922V61.8H335.922V65.8ZM318.722 65.8H314.722V69.8H318.722V65.8ZM318.722 49V45H314.722V49H318.722ZM335.922 49V53H339.922V49H335.922ZM335.922 19V15H331.922V19H335.922ZM354.322 19H358.322V15H354.322V19ZM354.322 49H350.322V53H354.322V49ZM378.322 49H382.322V45H378.322V49ZM378.322 65.8V69.8H382.322V65.8H378.322ZM354.322 65.8V61.8H350.322V65.8H354.322ZM358.122 128L355.371 130.904L355.412 130.943L355.455 130.981L358.122 128ZM370.922 131L371.706 134.922L371.841 134.895L371.974 134.859L370.922 131ZM374.922 129.6L378.693 128.266L377.251 124.188L373.297 125.945L374.922 129.6ZM380.722 146L382.08 149.762L385.818 148.413L384.493 144.666L380.722 146ZM363.922 144.6C356.818 144.6 351.155 142.442 346.638 138.264L341.206 144.136C347.356 149.825 355.025 152.6 363.922 152.6V144.6ZM346.675 138.298C342.427 134.268 340.042 128.525 339.921 120.539L331.922 120.661C332.068 130.275 335.017 138.265 341.169 144.102L346.675 138.298ZM339.922 120.6V65.8H331.922V120.6H339.922ZM335.922 61.8H318.722V69.8H335.922V61.8ZM322.722 65.8V49H314.722V65.8H322.722ZM318.722 53H335.922V45H318.722V53ZM339.922 49V19H331.922V49H339.922ZM335.922 23H354.322V15H335.922V23ZM350.322 19V49H358.322V19H350.322ZM354.322 53H378.322V45H354.322V53ZM374.322 49V65.8H382.322V49H374.322ZM378.322 61.8H354.322V69.8H378.322V61.8ZM350.322 65.8V114.6H358.322V65.8H350.322ZM350.322 114.6C350.322 121.366 351.577 127.309 355.371 130.904L360.873 125.096C359.6 123.891 358.322 120.901 358.322 114.6H350.322ZM355.455 130.981C358.672 133.859 362.473 135.4 366.722 135.4V127.4C364.571 127.4 362.639 126.674 360.789 125.019L355.455 130.981ZM366.722 135.4C368.431 135.4 370.095 135.245 371.706 134.922L370.137 127.078C369.082 127.289 367.946 127.4 366.722 127.4V135.4ZM371.974 134.859C373.607 134.414 375.135 133.883 376.546 133.255L373.297 125.945C372.309 126.384 371.17 126.786 369.869 127.141L371.974 134.859ZM371.151 130.934L376.951 147.334L384.493 144.666L378.693 128.266L371.151 130.934ZM379.363 142.238C375.094 143.78 369.971 144.6 363.922 144.6V152.6C370.672 152.6 376.75 151.687 382.08 149.762L379.363 142.238ZM521.025 129L518.197 126.172L518.155 126.213L518.115 126.255L521.025 129ZM415.625 128.6L418.453 125.772L418.453 125.772L415.625 128.6ZM415.625 22.2L418.453 25.0284L418.453 25.0284L415.625 22.2ZM521.225 22L524.053 24.8284L526.711 22.1713L524.224 19.3535L521.225 22ZM508.025 35.2L504.94 37.7455L507.741 41.141L510.853 38.0284L508.025 35.2ZM490.825 22.8L489.207 26.4581L489.249 26.4767L489.291 26.4944L490.825 22.8ZM428.825 34.4L425.997 31.5716L425.979 31.589L425.962 31.6067L428.825 34.4ZM428.825 116.4L425.962 119.193L425.979 119.211L425.997 119.228L428.825 116.4ZM504.025 120.6L501.443 117.545L501.443 117.545L504.025 120.6ZM520.425 87.6L524.403 88.0168L524.866 83.6H520.425V87.6ZM468.425 87.6H464.425V91.6H468.425V87.6ZM468.425 70.4V66.4H464.425V70.4H468.425ZM537.825 70.4L541.763 69.6968L541.174 66.4H537.825V70.4ZM534.825 81.2C534.825 100.357 529.172 115.196 518.197 126.172L523.853 131.828C536.612 119.07 542.825 102.043 542.825 81.2H534.825ZM518.115 126.255C505.631 139.488 489.201 146.2 468.425 146.2V154.2C491.116 154.2 509.752 146.778 523.935 131.745L518.115 126.255ZM468.425 146.2C448.66 146.2 432.085 139.404 418.453 125.772L412.797 131.428C427.965 146.596 446.59 154.2 468.425 154.2V146.2ZM418.453 125.772C404.832 112.15 398.025 95.4467 398.025 75.4H390.025C390.025 97.4867 397.618 116.25 412.797 131.428L418.453 125.772ZM398.025 75.4C398.025 55.3533 404.832 38.6499 418.453 25.0284L412.797 19.3716C397.618 34.5501 390.025 53.3133 390.025 75.4H398.025ZM418.453 25.0284C432.085 11.3964 448.66 4.59999 468.425 4.59999V-3.40001C446.59 -3.40001 427.965 4.20363 412.797 19.3716L418.453 25.0284ZM468.425 4.59999C478.474 4.59999 487.901 6.37853 496.739 9.9139L499.711 2.48608C489.882 -1.44521 479.442 -3.40001 468.425 -3.40001V4.59999ZM496.739 9.9139C505.556 13.4403 512.683 18.3649 518.226 24.6465L524.224 19.3535C517.767 12.0351 509.561 6.42631 499.711 2.48608L496.739 9.9139ZM518.397 19.1716L505.197 32.3716L510.853 38.0284L524.053 24.8284L518.397 19.1716ZM511.111 32.6545C506.252 26.7652 499.963 22.2622 492.359 19.1056L489.291 26.4944C495.82 29.2044 500.998 32.9681 504.94 37.7455L511.111 32.6545ZM492.443 19.1418C484.972 15.8374 476.951 14.2 468.425 14.2V22.2C475.899 22.2 482.811 23.6292 489.207 26.4581L492.443 19.1418ZM468.425 14.2C451.79 14.2 437.565 20.0036 425.997 31.5716L431.653 37.2284C441.686 27.1963 453.86 22.2 468.425 22.2V14.2ZM425.962 31.6067C414.509 43.3457 408.825 58.041 408.825 75.4H416.825C416.825 59.959 421.807 47.321 431.688 37.1933L425.962 31.6067ZM408.825 75.4C408.825 92.759 414.509 107.454 425.962 119.193L431.688 113.607C421.807 103.479 416.825 90.841 416.825 75.4H408.825ZM425.997 119.228C437.565 130.796 451.79 136.6 468.425 136.6V128.6C453.86 128.6 441.685 123.604 431.653 113.572L425.997 119.228ZM468.425 136.6C483.486 136.6 496.311 132.356 506.607 123.655L501.443 117.545C492.806 124.844 481.897 128.6 468.425 128.6V136.6ZM506.607 123.655C516.971 114.897 522.845 102.893 524.403 88.0168L516.447 87.1832C515.072 100.307 510.013 110.303 501.443 117.545L506.607 123.655ZM520.425 83.6H468.425V91.6H520.425V83.6ZM472.425 87.6V70.4H464.425V87.6H472.425ZM468.425 74.4H537.825V66.4H468.425V74.4ZM533.887 71.1032C534.516 74.6258 534.825 77.9899 534.825 81.2H542.825C542.825 77.4768 542.467 73.6408 541.763 69.6968L533.887 71.1032ZM567.605 60.6L564.738 57.8106L564.728 57.8206L564.718 57.8307L567.605 60.6ZM639.805 60.6L636.918 63.3693L636.928 63.3794L636.938 63.3894L639.805 60.6ZM639.805 135.4L636.957 132.591L636.937 132.611L636.918 132.631L639.805 135.4ZM567.605 135.4L564.718 138.169L564.728 138.179L564.738 138.189L567.605 135.4ZM581.005 123.6L578.088 126.338L578.088 126.338L581.005 123.6ZM626.605 72.6L629.521 69.8623L629.519 69.8604L626.605 72.6ZM581.005 72.6L578.09 69.8604L578.088 69.8623L581.005 72.6ZM557.405 98C557.405 83.8508 561.815 72.4123 570.491 63.3693L564.718 57.8307C554.461 68.5211 549.405 82.0158 549.405 98H557.405ZM570.472 63.3894C579.273 54.3436 590.284 49.8 603.805 49.8V41.8C588.259 41.8 575.136 47.1231 564.738 57.8106L570.472 63.3894ZM603.805 49.8C617.325 49.8 628.257 54.3424 636.918 63.3693L642.691 57.8307C632.419 47.1243 619.351 41.8 603.805 41.8V49.8ZM636.938 63.3894C645.739 72.4355 650.205 83.8674 650.205 98H658.205C658.205 81.9993 653.07 68.4979 642.672 57.8106L636.938 63.3894ZM650.205 98C650.205 112.277 645.733 123.693 636.957 132.591L642.653 138.209C653.076 127.64 658.205 114.123 658.205 98H650.205ZM636.918 132.631C628.257 141.658 617.325 146.2 603.805 146.2V154.2C619.351 154.2 632.419 148.876 642.691 138.169L636.918 132.631ZM603.805 146.2C590.284 146.2 579.273 141.656 570.472 132.611L564.738 138.189C575.136 148.877 588.259 154.2 603.805 154.2V146.2ZM570.491 132.631C561.815 123.588 557.405 112.149 557.405 98H549.405C549.405 113.984 554.461 127.479 564.718 138.169L570.491 132.631ZM567.805 98C567.805 109.36 571.139 118.935 578.088 126.338L583.921 120.862C578.604 115.199 575.805 107.707 575.805 98H567.805ZM578.088 126.338C584.988 133.687 593.648 137.4 603.805 137.4V129.4C595.828 129.4 589.288 126.579 583.921 120.862L578.088 126.338ZM603.805 137.4C613.961 137.4 622.622 133.687 629.521 126.338L623.688 120.862C618.321 126.579 611.781 129.4 603.805 129.4V137.4ZM629.521 126.338C636.471 118.935 639.805 109.36 639.805 98H631.805C631.805 107.707 629.005 115.199 623.688 120.862L629.521 126.338ZM639.805 98C639.805 86.7578 636.462 77.2556 629.521 69.8623L623.688 75.3377C629.014 81.0111 631.805 88.4422 631.805 98H639.805ZM629.519 69.8604C622.517 62.4115 613.872 58.6 603.805 58.6V66.6C611.604 66.6 618.159 69.4552 623.69 75.3396L629.519 69.8604ZM603.805 58.6C593.738 58.6 585.092 62.4115 578.09 69.8604L583.919 75.3396C589.451 69.4552 596.005 66.6 603.805 66.6V58.6ZM578.088 69.8623C571.148 77.2556 567.805 86.7578 567.805 98H575.805C575.805 88.4422 578.595 81.0111 583.921 75.3377L578.088 69.8623Z" fill="black"/>
</svg>
