<svg width="667" height="153" viewBox="0 0 667 153" fill="none" xmlns="http://www.w3.org/2000/svg">
<path d="M80.4 146.4H0V3.2H18.4V128.8H80.4V146.4Z" fill="#D9913C"/>
<path d="M142.409 149.6C128.009 149.6 116.143 144.667 106.809 134.8C97.476 124.933 92.8094 112.467 92.8094 97.4C92.8094 82.4667 97.3427 70.0667 106.409 60.2C115.476 50.2 127.076 45.2 141.209 45.2C155.743 45.2 167.276 49.9333 175.809 59.4C184.476 68.7333 188.809 81.8667 188.809 98.8L188.609 100.8H111.609C111.876 110.4 115.076 118.133 121.209 124C127.343 129.867 134.676 132.8 143.209 132.8C154.943 132.8 164.143 126.933 170.809 115.2L187.209 123.2C182.809 131.467 176.676 137.933 168.809 142.6C161.076 147.267 152.276 149.6 142.409 149.6ZM113.009 85.6H169.209C168.676 78.8 165.876 73.2 160.809 68.8C155.876 64.2667 149.209 62 140.809 62C133.876 62 127.876 64.1333 122.809 68.4C117.876 72.6667 114.609 78.4 113.009 85.6Z" fill="#F2C641"/>
<path d="M243.506 148C235.506 148 228.84 145.533 223.506 140.6C218.306 135.667 215.64 128.8 215.506 120V65.2H198.306V48.4H215.506V18.4H233.906V48.4H257.906V65.2H233.906V114C233.906 120.533 235.173 125 237.706 127.4C240.24 129.667 243.106 130.8 246.306 130.8C247.773 130.8 249.173 130.667 250.506 130.4C251.973 130 253.306 129.533 254.506 129L260.306 145.4C255.506 147.133 249.906 148 243.506 148Z" fill="#0B688A"/>
<path d="M299.009 146.4H280.609V3.2H299.009V146.4Z" fill="#FF7347"/>
<path d="M363.522 148C355.522 148 348.855 145.533 343.522 140.6C338.322 135.667 335.655 128.8 335.522 120V65.2H318.322V48.4H335.522V18.4H353.922V48.4H377.922V65.2H353.922V114C353.922 120.533 355.189 125 357.722 127.4C360.255 129.667 363.122 130.8 366.322 130.8C367.789 130.8 369.189 130.667 370.522 130.4C371.989 130 373.322 129.533 374.522 129L380.322 145.4C375.522 147.133 369.922 148 363.522 148Z" fill="#0B688A"/>
<path d="M538.425 80.6C538.425 100.6 532.492 116.533 520.625 128.4C507.292 142.533 489.758 149.6 468.025 149.6C447.225 149.6 429.625 142.4 415.225 128C400.825 113.6 393.625 95.8667 393.625 74.8C393.625 53.7333 400.825 36 415.225 21.6C429.625 7.2 447.225 0 468.025 0C478.558 0 488.492 1.86667 497.825 5.6C507.158 9.33333 514.825 14.6 520.825 21.4L507.625 34.6C503.225 29.2667 497.492 25.1333 490.425 22.2C483.492 19.1333 476.025 17.6 468.025 17.6C452.425 17.6 439.225 23 428.425 33.8C417.758 44.7333 412.425 58.4 412.425 74.8C412.425 91.2 417.758 104.867 428.425 115.8C439.225 126.6 452.425 132 468.025 132C482.292 132 494.158 128 503.625 120C513.092 112 518.558 101 520.025 87H468.025V69.8H537.425C538.092 73.5333 538.425 77.1333 538.425 80.6Z" fill="#F2C641"/>
<path d="M566.082 100.6C566.082 85.5334 570.815 73.0667 580.282 63.2C589.882 53.3333 601.948 48.4 616.482 48.4C631.015 48.4 643.015 53.3333 652.482 63.2C662.082 73.0667 666.882 85.5334 666.882 100.6C666.882 115.8 662.082 128.267 652.482 138C643.015 147.867 631.015 152.8 616.482 152.8C601.948 152.8 589.882 147.867 580.282 138C570.815 128.133 566.082 115.667 566.082 100.6ZM584.482 100.6C584.482 111.133 587.548 119.667 593.682 126.2C599.815 132.733 607.415 136 616.482 136C625.548 136 633.148 132.733 639.282 126.2C645.415 119.667 648.482 111.133 648.482 100.6C648.482 90.2 645.415 81.7333 639.282 75.2C633.015 68.5333 625.415 65.2 616.482 65.2C607.548 65.2 599.948 68.5333 593.682 75.2C587.548 81.7333 584.482 90.2 584.482 100.6Z" fill="#D9913C"/>
</svg>
